<svg width="702" height="179" viewBox="0 0 702 179" fill="none" xmlns="http://www.w3.org/2000/svg">
<rect y="28.6001" width="128" height="128" rx="10" fill="white"/>
<path d="M35.2031 63.8188H45.5108V74.1292H35.2031V63.8188ZM74.9401 120.753H85.2413V131.07H74.9401V120.753ZM95.5361 110.441H85.2413V100.135H74.9401V110.446H85.2413V120.753L95.5425 120.751V110.446H105.841V100.135H95.5361V110.441ZM95.5361 122.165H105.84V132.478H95.5361V122.165Z" fill="black"/>
<path d="M24.3087 88.0178H56.4065C58.049 88.0178 59.3804 86.6852 59.3819 85.0413V52.9117C59.3819 51.2662 58.0506 49.9336 56.4065 49.9336H24.3087C22.6646 49.9336 21.3333 51.2662 21.3333 52.9117V85.0413C21.3333 86.6852 22.6646 88.0178 24.3087 88.0178ZM27.2825 55.8881H53.4311V82.0632H27.2825V55.8881ZM82.4876 63.8189H92.7888V74.1292H82.4876V63.8189Z" fill="black"/>
<path d="M71.5868 88.0177H103.691C105.334 88.0177 106.665 86.6851 106.667 85.0412V52.9115C106.667 51.266 105.335 49.9335 103.691 49.9335H71.5868C69.9428 49.9335 68.6114 51.266 68.6114 52.9115V85.0396C68.6114 86.6851 69.9428 88.0177 71.5868 88.0177ZM74.5607 55.888H100.716V82.0631H74.5607V55.888ZM35.2725 111.07H45.5737V121.38H35.2725V111.07Z" fill="black"/>
<path d="M56.4761 97.1809H24.3717C22.7276 97.1809 21.3962 98.5135 21.3962 100.159V132.289C21.3962 133.934 22.7276 135.267 24.3717 135.267H56.4761C58.1186 135.267 59.45 133.933 59.4515 132.289V100.159C59.4515 98.5135 58.1201 97.1809 56.4761 97.1809ZM53.5007 129.311H27.3455V103.137H53.5007V129.311Z" fill="black"/>
<path d="M190.625 147.8L188.55 145.45C187.275 146.125 185.775 146.5 184.125 146.5C178.775 146.5 175.1 142.6 175.1 136.95C175.1 131.3 178.8 127.375 184.15 127.375C189.525 127.375 193.225 131.275 193.225 136.925C193.225 139.45 192.475 141.65 191.175 143.275L193.175 145.55L190.625 147.8ZM188.95 136.925C188.95 133.4 187.15 131.275 184.175 131.275C181.175 131.275 179.375 133.4 179.375 136.925C179.375 140.475 181.175 142.6 184.175 142.6C184.775 142.6 185.3 142.525 185.8 142.35L183.375 139.6L185.925 137.35L188.325 140.05C188.725 139.2 188.95 138.15 188.95 136.925ZM200.097 146.2H196.047V127.7H203.197C207.697 127.7 210.247 129.875 210.247 133.7C210.247 136.1 209.222 137.8 207.172 138.85L210.422 146.2H205.997L203.222 139.725H200.097V146.2ZM200.097 131.3V136.175H203.172C204.947 136.175 205.972 135.275 205.972 133.7C205.972 132.15 204.997 131.3 203.197 131.3H200.097ZM223.25 146.2H219.4V133.7H223L223.25 135C223.875 134.125 225.1 133.3 226.9 133.3C228.775 133.3 229.975 134.175 230.7 135.5C231.35 134.175 232.825 133.3 234.625 133.3C237.85 133.3 239.45 135.175 239.45 138.025V146.2H235.6V139.1C235.6 137.525 234.775 136.775 233.55 136.775C232.45 136.775 231.35 137.375 231.35 139.5V146.2H227.5V139.1C227.5 137.55 226.7 136.8 225.475 136.8C224.375 136.8 223.25 137.4 223.25 139.5V146.2ZM245.978 146.525C243.328 146.525 241.678 144.975 241.678 142.525C241.678 140.225 243.303 138.8 246.303 138.575L249.803 138.3V138.1C249.803 136.875 249.053 136.225 247.678 136.225C246.053 136.225 245.178 136.85 245.178 137.975H241.978C241.978 135.15 244.303 133.3 247.878 133.3C251.503 133.3 253.553 135.325 253.553 138.9V146.2H250.153L249.903 144.55C249.503 145.7 247.853 146.525 245.978 146.525ZM247.328 143.675C248.803 143.675 249.828 142.95 249.828 141.525V140.85L247.878 141.025C246.203 141.175 245.603 141.55 245.603 142.35C245.603 143.25 246.153 143.675 247.328 143.675ZM261.564 146.525C257.964 146.525 255.639 143.975 255.639 140.025C255.639 136.05 258.014 133.3 261.814 133.3C263.364 133.3 264.839 133.925 265.564 134.85V127.35H269.414V146.2H265.789L265.589 144.6C264.914 145.75 263.364 146.525 261.564 146.525ZM262.489 143C264.289 143 265.539 141.75 265.539 139.875C265.539 138 264.289 136.75 262.489 136.75C260.664 136.75 259.514 138.025 259.514 139.875C259.514 141.725 260.664 143 262.489 143ZM278.105 146.525C274.33 146.525 271.63 143.775 271.63 139.925C271.63 136.025 274.255 133.3 278.03 133.3C281.955 133.3 284.405 135.875 284.405 139.95V140.925L275.33 140.975C275.555 142.625 276.48 143.4 278.18 143.4C279.63 143.4 280.655 142.875 280.93 141.975H284.455C284.005 144.75 281.53 146.525 278.105 146.525ZM278.055 136.425C276.53 136.425 275.68 137.1 275.38 138.6H280.58C280.58 137.275 279.605 136.425 278.055 136.425ZM299.102 146.525C295.327 146.525 292.627 143.775 292.627 139.925C292.627 136.025 295.252 133.3 299.027 133.3C302.952 133.3 305.402 135.875 305.402 139.95V140.925L296.327 140.975C296.552 142.625 297.477 143.4 299.177 143.4C300.627 143.4 301.652 142.875 301.927 141.975H305.452C305.002 144.75 302.527 146.525 299.102 146.525ZM299.052 136.425C297.527 136.425 296.677 137.1 296.377 138.6H301.577C301.577 137.275 300.602 136.425 299.052 136.425ZM311.334 146.525C308.684 146.525 307.034 144.975 307.034 142.525C307.034 140.225 308.659 138.8 311.659 138.575L315.159 138.3V138.1C315.159 136.875 314.409 136.225 313.034 136.225C311.409 136.225 310.534 136.85 310.534 137.975H307.334C307.334 135.15 309.659 133.3 313.234 133.3C316.859 133.3 318.909 135.325 318.909 138.9V146.2H315.509L315.259 144.55C314.859 145.7 313.209 146.525 311.334 146.525ZM312.684 143.675C314.159 143.675 315.184 142.95 315.184 141.525V140.85L313.234 141.025C311.559 141.175 310.959 141.55 310.959 142.35C310.959 143.25 311.509 143.675 312.684 143.675ZM320.771 142.25H324.421C324.471 143.125 325.121 143.65 326.296 143.65C327.496 143.65 328.046 143.225 328.046 142.575C328.046 142.2 327.846 141.8 326.921 141.6L324.621 141.1C322.321 140.6 321.196 139.6 321.196 137.4C321.196 134.8 323.421 133.3 326.421 133.3C329.321 133.3 331.346 135 331.346 137.525H327.696C327.696 136.675 327.171 136.1 326.246 136.1C325.371 136.1 324.821 136.55 324.821 137.225C324.821 137.8 325.296 138.125 326.171 138.325L328.496 138.825C330.546 139.275 331.671 140.225 331.671 142.225C331.671 144.9 329.396 146.525 326.146 146.525C322.846 146.525 320.771 144.775 320.771 142.25ZM332.438 152.2V148.975H334.563C335.863 148.975 336.413 148.575 336.913 147.225L337.138 146.625L332.113 133.7H336.238L338.963 141.725L341.988 133.7H345.988L339.638 148.925C338.588 151.475 337.188 152.55 334.988 152.55C334.063 152.55 333.188 152.425 332.438 152.2Z" fill="black"/>
<path d="M200.76 107.56C183 107.56 171.88 95.8001 171.88 77.0801C171.88 58.6001 183.64 46.4401 201.32 46.4401C216.12 46.4401 226.76 54.9201 228.6 68.2001H214.92C213.16 62.2801 208.12 58.9201 201 58.9201C191.4 58.9201 185.56 65.7201 185.56 77.0001C185.56 88.1201 191.48 95.0801 201 95.0801C208.28 95.0801 213.64 91.4801 215.24 85.6401H228.68C226.6 98.8401 215.56 107.56 200.76 107.56ZM233.668 86.5201C233.668 73.8801 242.947 65.4001 255.748 65.4001C268.468 65.4001 277.748 73.8801 277.748 86.5201C277.748 99.1601 268.468 107.56 255.748 107.56C242.947 107.56 233.668 99.1601 233.668 86.5201ZM246.068 86.4401C246.068 92.5201 249.988 96.5201 255.748 96.5201C261.428 96.5201 265.348 92.5201 265.348 86.4401C265.348 80.4401 261.428 76.4401 255.748 76.4401C249.988 76.4401 246.068 80.4401 246.068 86.4401ZM297.21 106.6H284.89V66.6001H296.41L297.21 70.7601C299.21 67.9601 303.13 65.3201 308.89 65.3201C314.89 65.3201 318.73 68.1201 321.05 72.3601C323.13 68.1201 327.85 65.3201 333.61 65.3201C343.93 65.3201 349.05 71.3201 349.05 80.4401V106.6H336.73V83.8801C336.73 78.8401 334.09 76.4401 330.17 76.4401C326.65 76.4401 323.13 78.3601 323.13 85.1601V106.6H310.81V83.8801C310.81 78.9201 308.25 76.5201 304.33 76.5201C300.81 76.5201 297.21 78.4401 297.21 85.1601V106.6ZM357.859 125.8V66.6001H369.459L370.099 71.4801C372.339 67.8001 377.379 65.3201 383.059 65.3201C394.179 65.3201 401.939 73.0801 401.939 85.9601C401.939 98.6001 395.059 107.72 383.139 107.72C377.619 107.72 372.499 105.64 370.179 102.6V125.8H357.859ZM370.259 86.6001C370.259 92.6001 374.259 96.6001 380.019 96.6001C385.859 96.6001 389.539 92.5201 389.539 86.6001C389.539 80.6801 385.859 76.6001 380.019 76.6001C374.259 76.6001 370.259 80.6001 370.259 86.6001ZM406.871 86.5201C406.871 73.8801 416.151 65.4001 428.951 65.4001C441.671 65.4001 450.951 73.8801 450.951 86.5201C450.951 99.1601 441.671 107.56 428.951 107.56C416.151 107.56 406.871 99.1601 406.871 86.5201ZM419.271 86.4401C419.271 92.5201 423.191 96.5201 428.951 96.5201C434.631 96.5201 438.551 92.5201 438.551 86.4401C438.551 80.4401 434.631 76.4401 428.951 76.4401C423.191 76.4401 419.271 80.4401 419.271 86.4401ZM455.213 93.9601H466.893C467.053 96.7601 469.133 98.4401 472.893 98.4401C476.733 98.4401 478.493 97.0801 478.493 95.0001C478.493 93.8001 477.853 92.5201 474.893 91.8801L467.533 90.2801C460.173 88.6801 456.573 85.4801 456.573 78.4401C456.573 70.1201 463.693 65.3201 473.293 65.3201C482.573 65.3201 489.053 70.7601 489.053 78.8401H477.373C477.373 76.1201 475.693 74.2801 472.733 74.2801C469.933 74.2801 468.173 75.7201 468.173 77.8801C468.173 79.7201 469.693 80.7601 472.493 81.4001L479.933 83.0001C486.493 84.4401 490.093 87.4801 490.093 93.8801C490.093 102.44 482.813 107.64 472.413 107.64C461.853 107.64 455.213 102.04 455.213 93.9601ZM515.091 107.64C503.011 107.64 494.371 98.8401 494.371 86.5201C494.371 74.0401 502.771 65.3201 514.851 65.3201C527.411 65.3201 535.251 73.5601 535.251 86.6001V89.7201L506.211 89.8801C506.931 95.1601 509.891 97.6401 515.331 97.6401C519.971 97.6401 523.251 95.9601 524.131 93.0801H535.411C533.971 101.96 526.051 107.64 515.091 107.64ZM514.931 75.3201C510.051 75.3201 507.331 77.4801 506.371 82.2801H523.011C523.011 78.0401 519.891 75.3201 514.931 75.3201ZM611.638 111.72L604.998 104.2C600.918 106.36 596.118 107.56 590.838 107.56C573.718 107.56 561.958 95.0801 561.958 77.0001C561.958 58.9201 573.798 46.3601 590.918 46.3601C608.118 46.3601 619.958 58.8401 619.958 76.9201C619.958 85.0001 617.558 92.0401 613.398 97.2401L619.798 104.52L611.638 111.72ZM606.278 76.9201C606.278 65.6401 600.518 58.8401 590.998 58.8401C581.398 58.8401 575.638 65.6401 575.638 76.9201C575.638 88.2801 581.398 95.0801 590.998 95.0801C592.918 95.0801 594.598 94.8401 596.198 94.2801L588.438 85.4801L596.598 78.2801L604.278 86.9201C605.558 84.2001 606.278 80.8401 606.278 76.9201ZM641.948 106.6H628.988V47.4001H651.868C666.268 47.4001 674.428 54.3601 674.428 66.6001C674.428 74.2801 671.148 79.7201 664.588 83.0801L674.988 106.6H660.828L651.948 85.8801H641.948V106.6ZM641.948 58.9201V74.5201H651.788C657.468 74.5201 660.748 71.6401 660.748 66.6001C660.748 61.6401 657.628 58.9201 651.868 58.9201H641.948Z" fill="black"/>
</svg>
