<svg width="765" height="219" viewBox="0 0 765 219" fill="none" xmlns="http://www.w3.org/2000/svg">
<rect x="48" y="49" width="128" height="128" rx="10" fill="white"/>
<path d="M83.2031 84.2188H93.5108V94.5291H83.2031V84.2188ZM122.94 141.153H133.241V151.469H122.94V141.153ZM143.536 130.841H133.241V120.535H122.94V130.846H133.241V141.153L143.543 141.151V130.846H153.841V120.535H143.536V130.841ZM143.536 142.565H153.84V152.878H143.536V142.565Z" fill="black"/>
<path d="M72.3087 108.418H104.407C106.049 108.418 107.38 107.085 107.382 105.441V73.3116C107.382 71.6661 106.051 70.3335 104.407 70.3335H72.3087C70.6646 70.3335 69.3333 71.6661 69.3333 73.3116V105.441C69.3333 107.085 70.6646 108.418 72.3087 108.418ZM75.2825 76.2881H101.431V102.463H75.2825V76.2881ZM130.488 84.2188H140.789V94.5291H130.488V84.2188Z" fill="black"/>
<path d="M119.587 108.418H151.691C153.334 108.418 154.665 107.085 154.667 105.441V73.3114C154.667 71.6659 153.335 70.3334 151.691 70.3334H119.587C117.943 70.3334 116.611 71.6659 116.611 73.3114V105.44C116.611 107.085 117.943 108.418 119.587 108.418ZM122.561 76.2879H148.716V102.463H122.561V76.2879ZM83.2725 131.47H93.5737V141.78H83.2725V131.47Z" fill="black"/>
<path d="M104.476 117.581H72.3717C70.7276 117.581 69.3962 118.913 69.3962 120.559V152.689C69.3962 154.334 70.7276 155.667 72.3717 155.667H104.476C106.119 155.667 107.45 154.332 107.452 152.689V120.559C107.452 118.913 106.12 117.581 104.476 117.581ZM101.501 149.71H75.3455V123.537H101.501V149.71Z" fill="black"/>
<path d="M238.625 168.2L236.55 165.85C235.275 166.525 233.775 166.9 232.125 166.9C226.775 166.9 223.1 163 223.1 157.35C223.1 151.7 226.8 147.775 232.15 147.775C237.525 147.775 241.225 151.675 241.225 157.325C241.225 159.85 240.475 162.05 239.175 163.675L241.175 165.95L238.625 168.2ZM236.95 157.325C236.95 153.8 235.15 151.675 232.175 151.675C229.175 151.675 227.375 153.8 227.375 157.325C227.375 160.875 229.175 163 232.175 163C232.775 163 233.3 162.925 233.8 162.75L231.375 160L233.925 157.75L236.325 160.45C236.725 159.6 236.95 158.55 236.95 157.325ZM248.097 166.6H244.047V148.1H251.197C255.697 148.1 258.247 150.275 258.247 154.1C258.247 156.5 257.222 158.2 255.172 159.25L258.422 166.6H253.997L251.222 160.125H248.097V166.6ZM248.097 151.7V156.575H251.172C252.947 156.575 253.972 155.675 253.972 154.1C253.972 152.55 252.997 151.7 251.197 151.7H248.097ZM271.25 166.6H267.4V154.1H271L271.25 155.4C271.875 154.525 273.1 153.7 274.9 153.7C276.775 153.7 277.975 154.575 278.7 155.9C279.35 154.575 280.825 153.7 282.625 153.7C285.85 153.7 287.45 155.575 287.45 158.425V166.6H283.6V159.5C283.6 157.925 282.775 157.175 281.55 157.175C280.45 157.175 279.35 157.775 279.35 159.9V166.6H275.5V159.5C275.5 157.95 274.7 157.2 273.475 157.2C272.375 157.2 271.25 157.8 271.25 159.9V166.6ZM293.978 166.925C291.328 166.925 289.678 165.375 289.678 162.925C289.678 160.625 291.303 159.2 294.303 158.975L297.803 158.7V158.5C297.803 157.275 297.053 156.625 295.678 156.625C294.053 156.625 293.178 157.25 293.178 158.375H289.978C289.978 155.55 292.303 153.7 295.878 153.7C299.503 153.7 301.553 155.725 301.553 159.3V166.6H298.153L297.903 164.95C297.503 166.1 295.853 166.925 293.978 166.925ZM295.328 164.075C296.803 164.075 297.828 163.35 297.828 161.925V161.25L295.878 161.425C294.203 161.575 293.603 161.95 293.603 162.75C293.603 163.65 294.153 164.075 295.328 164.075ZM309.564 166.925C305.964 166.925 303.639 164.375 303.639 160.425C303.639 156.45 306.014 153.7 309.814 153.7C311.364 153.7 312.839 154.325 313.564 155.25V147.75H317.414V166.6H313.789L313.589 165C312.914 166.15 311.364 166.925 309.564 166.925ZM310.489 163.4C312.289 163.4 313.539 162.15 313.539 160.275C313.539 158.4 312.289 157.15 310.489 157.15C308.664 157.15 307.514 158.425 307.514 160.275C307.514 162.125 308.664 163.4 310.489 163.4ZM326.105 166.925C322.33 166.925 319.63 164.175 319.63 160.325C319.63 156.425 322.255 153.7 326.03 153.7C329.955 153.7 332.405 156.275 332.405 160.35V161.325L323.33 161.375C323.555 163.025 324.48 163.8 326.18 163.8C327.63 163.8 328.655 163.275 328.93 162.375H332.455C332.005 165.15 329.53 166.925 326.105 166.925ZM326.055 156.825C324.53 156.825 323.68 157.5 323.38 159H328.58C328.58 157.675 327.605 156.825 326.055 156.825ZM347.102 166.925C343.327 166.925 340.627 164.175 340.627 160.325C340.627 156.425 343.252 153.7 347.027 153.7C350.952 153.7 353.402 156.275 353.402 160.35V161.325L344.327 161.375C344.552 163.025 345.477 163.8 347.177 163.8C348.627 163.8 349.652 163.275 349.927 162.375H353.452C353.002 165.15 350.527 166.925 347.102 166.925ZM347.052 156.825C345.527 156.825 344.677 157.5 344.377 159H349.577C349.577 157.675 348.602 156.825 347.052 156.825ZM359.334 166.925C356.684 166.925 355.034 165.375 355.034 162.925C355.034 160.625 356.659 159.2 359.659 158.975L363.159 158.7V158.5C363.159 157.275 362.409 156.625 361.034 156.625C359.409 156.625 358.534 157.25 358.534 158.375H355.334C355.334 155.55 357.659 153.7 361.234 153.7C364.859 153.7 366.909 155.725 366.909 159.3V166.6H363.509L363.259 164.95C362.859 166.1 361.209 166.925 359.334 166.925ZM360.684 164.075C362.159 164.075 363.184 163.35 363.184 161.925V161.25L361.234 161.425C359.559 161.575 358.959 161.95 358.959 162.75C358.959 163.65 359.509 164.075 360.684 164.075ZM368.771 162.65H372.421C372.471 163.525 373.121 164.05 374.296 164.05C375.496 164.05 376.046 163.625 376.046 162.975C376.046 162.6 375.846 162.2 374.921 162L372.621 161.5C370.321 161 369.196 160 369.196 157.8C369.196 155.2 371.421 153.7 374.421 153.7C377.321 153.7 379.346 155.4 379.346 157.925H375.696C375.696 157.075 375.171 156.5 374.246 156.5C373.371 156.5 372.821 156.95 372.821 157.625C372.821 158.2 373.296 158.525 374.171 158.725L376.496 159.225C378.546 159.675 379.671 160.625 379.671 162.625C379.671 165.3 377.396 166.925 374.146 166.925C370.846 166.925 368.771 165.175 368.771 162.65ZM380.438 172.6V169.375H382.563C383.863 169.375 384.413 168.975 384.913 167.625L385.138 167.025L380.113 154.1H384.238L386.963 162.125L389.988 154.1H393.988L387.638 169.325C386.588 171.875 385.188 172.95 382.988 172.95C382.063 172.95 381.188 172.825 380.438 172.6Z" fill="black"/>
<path d="M248.76 127.96C231 127.96 219.88 116.2 219.88 97.48C219.88 79 231.64 66.84 249.32 66.84C264.12 66.84 274.76 75.32 276.6 88.6H262.92C261.16 82.68 256.12 79.32 249 79.32C239.4 79.32 233.56 86.12 233.56 97.4C233.56 108.52 239.48 115.48 249 115.48C256.28 115.48 261.64 111.88 263.24 106.04H276.68C274.6 119.24 263.56 127.96 248.76 127.96ZM281.668 106.92C281.668 94.28 290.947 85.8 303.748 85.8C316.468 85.8 325.748 94.28 325.748 106.92C325.748 119.56 316.468 127.96 303.748 127.96C290.947 127.96 281.668 119.56 281.668 106.92ZM294.068 106.84C294.068 112.92 297.988 116.92 303.748 116.92C309.428 116.92 313.348 112.92 313.348 106.84C313.348 100.84 309.428 96.84 303.748 96.84C297.988 96.84 294.068 100.84 294.068 106.84ZM345.21 127H332.89V87H344.41L345.21 91.16C347.21 88.36 351.13 85.72 356.89 85.72C362.89 85.72 366.73 88.52 369.05 92.76C371.13 88.52 375.85 85.72 381.61 85.72C391.93 85.72 397.05 91.72 397.05 100.84V127H384.73V104.28C384.73 99.24 382.09 96.84 378.17 96.84C374.65 96.84 371.13 98.76 371.13 105.56V127H358.81V104.28C358.81 99.32 356.25 96.92 352.33 96.92C348.81 96.92 345.21 98.84 345.21 105.56V127ZM405.859 146.2V87H417.459L418.099 91.88C420.339 88.2 425.379 85.72 431.059 85.72C442.179 85.72 449.939 93.48 449.939 106.36C449.939 119 443.059 128.12 431.139 128.12C425.619 128.12 420.499 126.04 418.179 123V146.2H405.859ZM418.259 107C418.259 113 422.259 117 428.019 117C433.859 117 437.539 112.92 437.539 107C437.539 101.08 433.859 97 428.019 97C422.259 97 418.259 101 418.259 107ZM454.871 106.92C454.871 94.28 464.151 85.8 476.951 85.8C489.671 85.8 498.951 94.28 498.951 106.92C498.951 119.56 489.671 127.96 476.951 127.96C464.151 127.96 454.871 119.56 454.871 106.92ZM467.271 106.84C467.271 112.92 471.191 116.92 476.951 116.92C482.631 116.92 486.551 112.92 486.551 106.84C486.551 100.84 482.631 96.84 476.951 96.84C471.191 96.84 467.271 100.84 467.271 106.84ZM503.213 114.36H514.893C515.053 117.16 517.133 118.84 520.893 118.84C524.733 118.84 526.493 117.48 526.493 115.4C526.493 114.2 525.853 112.92 522.893 112.28L515.533 110.68C508.173 109.08 504.573 105.88 504.573 98.84C504.573 90.52 511.693 85.72 521.293 85.72C530.573 85.72 537.053 91.16 537.053 99.24H525.373C525.373 96.52 523.693 94.68 520.733 94.68C517.933 94.68 516.173 96.12 516.173 98.28C516.173 100.12 517.693 101.16 520.493 101.8L527.933 103.4C534.493 104.84 538.093 107.88 538.093 114.28C538.093 122.84 530.813 128.04 520.413 128.04C509.853 128.04 503.213 122.44 503.213 114.36ZM563.091 128.04C551.011 128.04 542.371 119.24 542.371 106.92C542.371 94.44 550.771 85.72 562.851 85.72C575.411 85.72 583.251 93.96 583.251 107V110.12L554.211 110.28C554.931 115.56 557.891 118.04 563.331 118.04C567.971 118.04 571.251 116.36 572.131 113.48H583.411C581.971 122.36 574.051 128.04 563.091 128.04ZM562.931 95.72C558.051 95.72 555.331 97.88 554.371 102.68H571.011C571.011 98.44 567.891 95.72 562.931 95.72ZM659.638 132.12L652.998 124.6C648.918 126.76 644.118 127.96 638.838 127.96C621.718 127.96 609.958 115.48 609.958 97.4C609.958 79.32 621.798 66.76 638.918 66.76C656.118 66.76 667.958 79.24 667.958 97.32C667.958 105.4 665.558 112.44 661.398 117.64L667.798 124.92L659.638 132.12ZM654.278 97.32C654.278 86.04 648.518 79.24 638.998 79.24C629.398 79.24 623.638 86.04 623.638 97.32C623.638 108.68 629.398 115.48 638.998 115.48C640.918 115.48 642.598 115.24 644.198 114.68L636.438 105.88L644.598 98.68L652.278 107.32C653.558 104.6 654.278 101.24 654.278 97.32ZM689.948 127H676.988V67.8H699.868C714.268 67.8 722.428 74.76 722.428 87C722.428 94.68 719.148 100.12 712.588 103.48L722.988 127H708.828L699.948 106.28H689.948V127ZM689.948 79.32V94.92H699.788C705.468 94.92 708.748 92.04 708.748 87C708.748 82.04 705.628 79.32 699.868 79.32H689.948Z" fill="black"/>
</svg>
